<?xml version="1.0" standalone="no"?>
<!DOCTYPE svg PUBLIC "-//W3C//DTD SVG 20010904//EN"
 "http://www.w3.org/TR/2001/REC-SVG-20010904/DTD/svg10.dtd">
<svg version="1.0" xmlns="http://www.w3.org/2000/svg"
 width="260.000000pt" height="260.000000pt" viewBox="0 0 260.000000 260.000000"
 preserveAspectRatio="xMidYMid meet">
<metadata>
Created by potrace 1.11, written by Peter Selinger 2001-2013
</metadata>
<g transform="translate(0.000000,260.000000) scale(0.100000,-0.100000)"
fill="#000000" stroke="none">
<path d="M1071 2585 c-40 -8 -117 -28 -170 -46 -341 -113 -605 -345 -769 -675
-143 -286 -167 -646 -66 -967 63 -196 161 -357 317 -516 66 -67 233 -201 251
-201 2 0 35 -18 73 -39 79 -46 256 -108 363 -127 102 -18 366 -18 472 1 96 17
263 72 352 117 283 142 520 408 632 706 59 155 68 206 72 417 4 228 -4 301
-53 451 -70 214 -174 377 -346 545 -136 132 -325 240 -539 307 -130 41 -433
55 -589 27z m510 -89 c477 -109 833 -477 936 -966 25 -118 24 -343 -1 -465
-81 -389 -313 -693 -664 -869 -267 -134 -600 -161 -902 -74 -330 95 -627 358
-769 681 -70 160 -92 265 -98 457 -6 187 7 282 59 435 150 444 546 766 1014
825 113 14 305 3 425 -24z"/>
<path d="M1072 2278 c-15 -15 -15 -61 0 -76 7 -7 21 -12 33 -12 28 0 45 19 45
50 0 31 -17 50 -45 50 -12 0 -26 -5 -33 -12z"/>
<path d="M1895 2093 c-97 -10 -268 -82 -348 -145 -21 -17 -39 -29 -41 -27 -2
2 -8 18 -13 34 -22 68 -101 90 -218 60 -154 -41 -215 -86 -506 -372 l-246
-243 -54 0 c-30 0 -70 -4 -88 -10 -37 -10 -101 -66 -101 -87 0 -7 -6 -13 -13
-13 -7 0 -34 -20 -61 -43 -34 -31 -47 -50 -44 -65 1 -12 63 -82 137 -157 l134
-136 -21 -20 c-12 -11 -22 -25 -22 -30 0 -17 140 -158 164 -165 15 -5 28 2 51
29 l31 36 46 -48 47 -49 -35 -30 c-19 -17 -34 -36 -34 -42 0 -18 151 -170 168
-170 9 0 24 8 34 17 18 16 25 11 161 -125 78 -78 149 -142 158 -142 15 0 94
75 100 97 2 6 19 22 38 35 60 41 74 68 79 160 l4 83 253 255 c194 197 261 271
292 325 69 120 100 258 73 329 -11 31 -52 59 -85 59 -24 -1 -24 0 11 41 48 55
118 204 140 294 11 49 15 94 11 139 -4 59 -9 71 -36 95 -17 15 -41 28 -54 29
-12 0 -35 2 -52 3 -16 1 -43 1 -60 -1z m115 -83 c11 -7 15 -27 14 -77 -2 -134
-66 -276 -186 -416 -34 -39 -48 -64 -46 -80 3 -21 7 -22 69 -19 86 5 104 -10
94 -77 -9 -67 -23 -107 -63 -186 -31 -59 -72 -105 -259 -295 l-224 -225 7 65
c10 105 30 177 63 227 17 25 45 91 62 147 80 263 85 272 220 412 118 121 159
189 179 293 11 57 1 120 -23 139 -39 32 -151 20 -242 -25 -60 -30 -104 -66
-210 -167 -44 -43 -100 -88 -126 -101 -25 -13 -117 -46 -205 -73 -89 -27 -179
-62 -201 -76 -49 -33 -118 -52 -218 -61 l-74 -7 227 224 c238 235 280 266 401
302 73 21 147 21 155 0 4 -9 3 -45 0 -79 -6 -58 -5 -63 15 -70 16 -5 34 5 79
43 110 95 192 140 307 172 69 19 163 25 185 10z m-140 -196 c0 -77 -54 -174
-149 -269 l-81 -80 -82 83 -83 82 70 71 c100 101 201 156 288 158 l37 1 0 -46z
m-423 -542 l-136 -136 -82 82 c-45 46 -78 86 -75 90 3 4 65 66 137 138 l130
130 82 -83 81 -84 -137 -137z m-217 225 c0 -1 -126 -128 -279 -281 l-279 -279
-161 163 c-89 89 -161 169 -161 176 0 28 45 43 145 49 205 11 271 16 292 22
15 3 -7 -23 -63 -78 -47 -46 -90 -93 -94 -104 -10 -25 5 -55 28 -55 9 0 89 72
177 160 l160 160 110 34 c111 34 125 38 125 33z m-52 -330 l82 -82 -138 -138
-137 -137 -85 85 -85 85 135 135 c74 73 137 134 140 134 3 1 42 -36 88 -82z
m332 51 c-5 -13 -23 -68 -39 -123 l-30 -100 -161 -160 c-132 -131 -160 -164
-158 -185 2 -17 10 -26 26 -28 18 -3 44 17 113 85 l91 88 -7 -65 c-3 -36 -10
-129 -15 -208 -6 -114 -12 -147 -26 -163 -9 -10 -22 -19 -28 -19 -6 0 -84 73
-173 162 l-163 163 287 287 c159 159 289 288 290 288 2 0 -2 -10 -7 -22z
m-1096 -127 c103 -103 118 -122 107 -135 -8 -9 -19 -16 -25 -16 -6 0 -65 54
-130 119 -103 103 -118 122 -107 135 8 9 19 16 25 16 6 0 65 -54 130 -119z
m465 -387 l-54 -54 -85 85 -85 85 54 54 54 55 84 -86 85 -86 -53 -53z m-270
193 c8 -11 5 -19 -15 -38 -19 -18 -24 -31 -20 -51 9 -45 -15 -49 -52 -7 l-33
37 47 36 c52 40 57 42 73 23z m295 -295 c2 -4 -13 -31 -35 -60 l-40 -52 -38
38 c-33 32 -36 39 -23 48 12 9 19 8 30 -2 19 -19 27 -18 59 11 30 26 39 30 47
17z m298 -344 c-12 -12 -23 -20 -24 -17 -2 3 -59 62 -127 131 -125 127 -125
127 -106 148 l19 21 130 -131 130 -130 -22 -22z"/>
<path d="M1667 1774 c-36 -20 -35 -67 1 -72 14 -2 27 -14 33 -30 20 -51 51
-55 79 -9 40 65 16 127 -48 127 -20 -1 -50 -8 -65 -16z"/>
<path d="M367 1813 c-14 -13 -6 -47 15 -70 l21 -23 -22 -24 c-26 -28 -25 -69
2 -74 11 -2 31 8 46 22 l27 26 24 -25 c14 -15 33 -25 45 -23 29 4 32 45 5 73
l-23 24 26 31 c28 33 27 56 -5 66 -14 4 -28 -2 -47 -20 l-27 -26 -24 25 c-23
24 -50 32 -63 18z"/>
<path d="M2192 1088 c-18 -18 -14 -46 9 -69 l21 -21 -22 -23 c-26 -27 -24 -68
4 -73 10 -2 31 5 47 17 l28 21 27 -25 c21 -19 30 -22 45 -14 25 13 24 51 -1
74 -20 18 -20 19 -2 39 32 36 35 46 16 67 -22 24 -26 24 -62 -6 l-29 -24 -23
24 c-26 28 -40 31 -58 13z"/>
<path d="M1596 515 c-21 -22 -20 -58 2 -78 24 -22 38 -21 62 3 23 23 25 40 8
62 -20 25 -54 31 -72 13z"/>
</g>
</svg>
